<svg width="100%" height="100%" viewBox="0 0 32 32" fill="none" xmlns="http://www.w3.org/2000/svg">
  <!-- Optimized for favicon use -->
  <metadata>
    <rdf:RDF xmlns:rdf="http://www.w3.org/1999/02/22-rdf-syntax-ns#">
      <rdf:Description>
        <title>Farmers Market Basket Logo</title>
      </rdf:Description>
    </rdf:RDF>
  </metadata>
  
  <!-- Apples - positioned behind basket - slightly bigger -->
  <!-- Red apple 1 -->
  <circle cx="10" cy="12" r="3.3" fill="#FF6B6B" stroke="#C74A4A" stroke-width="1.2"/>
  <path d="M10 9L10.5 10.5" stroke="#8B5E3C" stroke-width="0.8" stroke-linecap="round"/>
  <path d="M11 9.5C10.5 8.5 12 8 12.5 9" fill="#7FB069" stroke="#5D8850" stroke-width="0.7"/>
  
  <!-- Red apple 2 -->  
  <circle cx="17" cy="10.5" r="3.3" fill="#FF6B6B" stroke="#C74A4A" stroke-width="1.2"/>
  <path d="M17 7.5L17.5 9" stroke="#8B5E3C" stroke-width="0.8" stroke-linecap="round"/>
  <path d="M18 8C17.5 7 19 6.5 19.5 7.5" fill="#7FB069" stroke="#5D8850" stroke-width="0.7"/>
  
  <!-- Yellow apple -->
  <circle cx="22" cy="12" r="3.3" fill="#FFDB5C" stroke="#E6B331" stroke-width="1.2"/>  
  <path d="M22 9L22.5 10.5" stroke="#8B5E3C" stroke-width="0.8" stroke-linecap="round"/>
  <path d="M23 9.5C22.5 8.5 24 8 24.5 9" fill="#7FB069" stroke="#5D8850" stroke-width="0.7"/>
  
  <!-- Green apple -->
  <circle cx="14" cy="13" r="3.3" fill="#7FB069" stroke="#5D8850" stroke-width="1.2"/>
  <path d="M14 10L14.5 11.5" stroke="#8B5E3C" stroke-width="0.8" stroke-linecap="round"/>
  <path d="M15 10.5C14.5 9.5 16 9 16.5 10" fill="#7FB069" stroke="#5D8850" stroke-width="0.7"/>
  
  <!-- Basket fill - without stroke - 3% darker brown - narrower right side (80% smaller margin) -->
  <path d="M5 13H25.4L24 27H7L5 13Z" fill="#cc9e70" stroke-linejoin="round"/>
  <path d="M7 27C7 27 8 29 16 29C21 29 23 27 24 27" fill="#cc9e70" stroke-linejoin="round"/>
  
  <!-- Fine lattice pattern - diamond grid with more lines - slightly darker -->
  <!-- First set of diagonals (top-left to bottom-right) -->
  <path d="M6 13L9 27" stroke="#a67960" stroke-width="0.5" stroke-linecap="round"/>
  <path d="M8 13L11 27" stroke="#a67960" stroke-width="0.5" stroke-linecap="round"/>
  <path d="M10 13L13 27" stroke="#a67960" stroke-width="0.5" stroke-linecap="round"/>
  <path d="M12 13L15 27" stroke="#a67960" stroke-width="0.5" stroke-linecap="round"/>
  <path d="M14 13L17 27" stroke="#a67960" stroke-width="0.5" stroke-linecap="round"/>
  <path d="M16 13L19 27" stroke="#a67960" stroke-width="0.5" stroke-linecap="round"/>
  <path d="M18 13L21 27" stroke="#a67960" stroke-width="0.5" stroke-linecap="round"/>
  <path d="M20 13L23 27" stroke="#a67960" stroke-width="0.5" stroke-linecap="round"/>
  <path d="M22 13L24 26" stroke="#a67960" stroke-width="0.5" stroke-linecap="round"/>
  <path d="M24 13L25 24" stroke="#a67960" stroke-width="0.5" stroke-linecap="round"/>
  
  <!-- Second set of diagonals (top-right to bottom-left) -->
  <path d="M25 13L22 27" stroke="#a67960" stroke-width="0.5" stroke-linecap="round"/>
  <path d="M23 13L20 27" stroke="#a67960" stroke-width="0.5" stroke-linecap="round"/>
  <path d="M21 13L18 27" stroke="#a67960" stroke-width="0.5" stroke-linecap="round"/>
  <path d="M19 13L16 27" stroke="#a67960" stroke-width="0.5" stroke-linecap="round"/>
  <path d="M17 13L14 27" stroke="#a67960" stroke-width="0.5" stroke-linecap="round"/>
  <path d="M15 13L12 27" stroke="#a67960" stroke-width="0.5" stroke-linecap="round"/>
  <path d="M13 13L10 27" stroke="#a67960" stroke-width="0.5" stroke-linecap="round"/>
  <path d="M11 13L8 27" stroke="#a67960" stroke-width="0.5" stroke-linecap="round"/>
  <path d="M9 13L7 26" stroke="#a67960" stroke-width="0.5" stroke-linecap="round"/>
  <path d="M7 13L6 24" stroke="#a67960" stroke-width="0.5" stroke-linecap="round"/>
  
  <!-- Basket border strokes - placed after lattice to overlap - thinner line weight -->
  <path d="M5 13H25.4L24 27H7L5 13Z" fill="none" stroke="#8B5E3C" stroke-width="1" stroke-linejoin="round"/>
  <path d="M7 27C7 27 8 29 16 29C21 29 23 27 24 27" fill="none" stroke="#8B5E3C" stroke-width="1" stroke-linejoin="round"/>
  
  <!-- Expanded grape stems with more structure -->
  <path d="M19.5 11.5C19.5 11.5 20 9.5 21.5 10" stroke="#8B5E3C" stroke-width="0.8" stroke-linecap="round"/>
  <path d="M21.5 10C21.5 10 23 9.5 23.5 10.5" stroke="#8B5E3C" stroke-width="0.7" stroke-linecap="round"/>
  <path d="M21.5 10.5C20.5 9 23 8.5 22.5 10" fill="#7FB069" stroke="#5D8850" stroke-width="0.7"/>
  
  <!-- Secondary stem branches -->
  <path d="M21 10L19.5 12" stroke="#8B5E3C" stroke-width="0.6" stroke-linecap="round"/>
  <path d="M21.5 10.5L20 13" stroke="#8B5E3C" stroke-width="0.6" stroke-linecap="round"/>
  <path d="M21.3 10.3L22 12.5" stroke="#8B5E3C" stroke-width="0.6" stroke-linecap="round"/>
  
  <!-- Extended stem for lower grapes -->
  <path d="M20 16.5L19.5 18" stroke="#8B5E3C" stroke-width="0.5" stroke-linecap="round"/>
  <path d="M20 16.5L20.5 18.5" stroke="#8B5E3C" stroke-width="0.5" stroke-linecap="round"/>
  
  <!-- Grapes arranged in triangular formation that tapers to a point - slightly bigger -->
  <!-- Top row - 4 grapes -->
  <circle cx="18" cy="12.5" r="1.2" fill="#9B5DE5" stroke="#7A3DAE" stroke-width="0.8"/>
  <circle cx="20" cy="12" r="1.2" fill="#9B5DE5" stroke="#7A3DAE" stroke-width="0.8"/>
  <circle cx="22" cy="12.5" r="1.2" fill="#9B5DE5" stroke="#7A3DAE" stroke-width="0.8"/>
  <circle cx="23.5" cy="13.5" r="1.2" fill="#9B5DE5" stroke="#7A3DAE" stroke-width="0.8"/>
  
  <!-- Middle row - 3 grapes -->
  <circle cx="19" cy="14.5" r="1.2" fill="#9B5DE5" stroke="#7A3DAE" stroke-width="0.8"/>
  <circle cx="21" cy="14.5" r="1.2" fill="#9B5DE5" stroke="#7A3DAE" stroke-width="0.8"/>
  <circle cx="22.5" cy="15.5" r="1.2" fill="#9B5DE5" stroke="#7A3DAE" stroke-width="0.8"/>
  
  <!-- Lower middle row - 2 grapes -->
  <circle cx="20" cy="16.5" r="1.2" fill="#9B5DE5" stroke="#7A3DAE" stroke-width="0.8"/>
  <circle cx="21.5" cy="17.5" r="1.2" fill="#9B5DE5" stroke="#7A3DAE" stroke-width="0.8"/>
  
  <!-- Bottom row - 2 more grapes -->
  <circle cx="19.5" cy="18.5" r="1.2" fill="#9B5DE5" stroke="#7A3DAE" stroke-width="0.8"/>
  <circle cx="20.5" cy="19.5" r="1.2" fill="#9B5DE5" stroke="#7A3DAE" stroke-width="0.8"/>
  
  <!-- Bottom point - single grape -->
  <circle cx="20" cy="21" r="1.2" fill="#9B5DE5" stroke="#7A3DAE" stroke-width="0.8"/>
</svg> 