<svg width="100%" height="100%" viewBox="0 0 32 32" fill="none" xmlns="http://www.w3.org/2000/svg">
  <!-- Basket handle -->
  <path d="M8 12C8 8 12 5 16 5C20 5 24 8 24 12" stroke="#fef08a" stroke-width="2" stroke-linecap="round"/>
  
  <!-- Basket body -->
  <path d="M4 12H28L26 24H6L4 12Z" fill="#78350f" stroke="#78350f" stroke-width="1"/>
  
  <!-- Basket horizontal lattice lines -->
  <path d="M5 14H27" stroke="#fef08a" stroke-width="0.8" stroke-linecap="round"/>
  <path d="M5.5 16H26.5" stroke="#fef08a" stroke-width="0.8" stroke-linecap="round"/>
  <path d="M6 18H26" stroke="#fef08a" stroke-width="0.8" stroke-linecap="round"/>
  <path d="M6.5 20H25.5" stroke="#fef08a" stroke-width="0.8" stroke-linecap="round"/>
  <path d="M7 22H25" stroke="#fef08a" stroke-width="0.8" stroke-linecap="round"/>
  
  <!-- Basket vertical lattice lines -->
  <path d="M8 12.5V23.5" stroke="#fef08a" stroke-width="0.8" stroke-linecap="round"/>
  <path d="M12 12.5V23.5" stroke="#fef08a" stroke-width="0.8" stroke-linecap="round"/>
  <path d="M16 12.5V23.5" stroke="#fef08a" stroke-width="0.8" stroke-linecap="round"/>
  <path d="M20 12.5V23.5" stroke="#fef08a" stroke-width="0.8" stroke-linecap="round"/>
  <path d="M24 12.5V23.5" stroke="#fef08a" stroke-width="0.8" stroke-linecap="round"/>
  
  <!-- Produce items peeking out -->
  <circle cx="11" cy="10" r="2" fill="#f97316"/>
  <circle cx="16" cy="9" r="2" fill="#4ade80"/>
  <circle cx="21" cy="10" r="2" fill="#ef4444"/>
</svg> 