<svg xmlns="http://www.w3.org/2000/svg" viewBox="0 0 512 512" fill="none">
  <!-- Basket -->
  <path d="M100 200 L412 200 L380 400 L132 400 Z" fill="#b45309" stroke="#78350f" stroke-width="8"/>
  
  <!-- Basket handle -->
  <path d="M140 200 C200 120 312 120 372 200" fill="none" stroke="#78350f" stroke-width="12" stroke-linecap="round"/>
  
  <!-- Green leafy vegetable -->
  <path d="M180 220 Q200 180 220 220 Q240 180 260 220 L240 320 L200 320 Z" fill="#166534" stroke="#14532d" stroke-width="3"/>
  
  <!-- Carrot -->
  <path d="M280 220 L290 240 L320 320 L300 330 L280 320 L270 240 Z" fill="#ea580c" stroke="#9a3412" stroke-width="3"/>
  <path d="M285 220 L290 200 L295 220" fill="#84cc16" stroke="#4d7c0f" stroke-width="2"/>
  
  <!-- Apple -->
  <circle cx="340" cy="260" r="30" fill="#dc2626" stroke="#991b1b" stroke-width="3"/>
  <path d="M340 230 L340 220 Q350 210 360 220" fill="none" stroke="#365314" stroke-width="3"/>
  
  <!-- Tomato -->
  <circle cx="220" cy="260" r="22" fill="#ef4444" stroke="#b91c1c" stroke-width="3"/>
  <path d="M220 238 L220 230 Q230 220 240 230" fill="none" stroke="#365314" stroke-width="3"/>
</svg> 